<svg xmlns="http://www.w3.org/2000/svg" viewBox="38.25 115.5 535.5 561">
	<path fill="#BDBDBD" d="M305.146,115.5L38.25,208.384l42.177,345.818l225,122.298l226.16-123.955l42.164-345.806L305.146,115.5z"/>
	<path fill="#B71C1C" d="M545.93,224.219L306,142.721v504.39l201.858-110.645L545.93,224.219z"/>
	<path fill="#DD2C00" d="M305.248,142.466l-239.19,83.245l38.084,312.362l201.233,109.369l0.625-0.331v-504.39L305.248,142.466z"/>
	<path fill="#BDBDBD" d="M306,166.449v121.227L415.369,523.5h56.215L306,166.449z"/>
	<path fill="#EEEEEE" d="M140.416,523.5h56.215L306,287.676V166.449L140.416,523.5z"/>
	<path fill="#BDBDBD" d="M306,396h76.5v51H306V396z"/>
	<path fill="#EEEEEE" d="M229.5,396H306v51h-76.5V396z"/>
</svg>
