<svg xmlns="http://www.w3.org/2000/svg" viewBox="89.25 153.75 433.5 484.5">
	<path fill="#0277BD" d="M522.75,153.75H89.25l38.25,433.5l178.5,51l178.5-51L522.75,153.75L522.75,153.75z"/>
	<path fill="#039BE5" d="M306,192v406.725l142.8-40.8L480.675,192H306z"/>
	<path fill="#FFFFFF" d="M422.025,255.75H306v51h62.475l-3.824,51H306v51h56.1l-3.824,57.375L306,483.975v53.551l100.725-33.15l8.926-146.625l0,0L422.025,255.75z"/>
	<path fill="#EEEEEE" d="M306,255.75v51H192.525l-3.825-51H306z M247.35,357.75l2.55,51H306v-51H247.35z M252.45,434.25h-51l3.825,70.125L306,537.525v-53.551l-52.275-17.85L252.45,434.25z"/>
</svg>
