<svg xmlns="http://www.w3.org/2000/svg" viewBox="0 97.573 612 596.847">
	<path d="M306,97.573c-169.065,0-306,137.012-306,306c0,135.227,87.669,249.9,209.228,290.317c15.3,2.882,20.91-6.579,20.91-14.713c0-7.268-0.255-26.521-0.383-52.021c-85.119,18.462-103.071-41.055-103.071-41.055c-13.923-35.317-34.042-44.753-34.042-44.753c-27.719-18.972,2.142-18.589,2.142-18.589c30.728,2.142,46.869,31.518,46.869,31.518c27.285,46.793,71.63,33.277,89.123,25.449c2.754-19.788,10.634-33.277,19.38-40.928c-67.958-7.649-139.383-33.966-139.383-151.215c0-33.405,11.857-60.69,31.493-82.11c-3.443-7.727-13.77-38.836,2.677-80.988c0,0,25.627-8.211,84.15,31.365c24.48-6.809,50.49-10.174,76.5-10.328c26.01,0.153,52.021,3.519,76.5,10.328c58.141-39.576,83.768-31.365,83.768-31.365c16.447,42.152,6.12,73.262,3.061,80.988c19.507,21.42,31.364,48.705,31.364,82.11c0,117.555-71.527,143.438-139.612,150.96c10.71,9.18,20.655,27.948,20.655,56.61c0,40.953-0.383,73.848-0.383,83.793c0,8.032,5.355,17.595,21.038,14.535C524.407,653.346,612,538.596,612,403.573C612,234.585,474.988,97.573,306,97.573"/>
</svg>
