<svg xmlns="http://www.w3.org/2000/svg" viewBox="89.25 153.75 433.5 484.5">
	<path fill="#E65100" d="M522.75,153.75H89.25l38.25,433.5l178.5,51l178.5-51L522.75,153.75L522.75,153.75z"/>
	<path fill="#FF6D00" d="M306,192v406.725l142.8-40.8L480.675,192H306z"/>
	<path fill="#FFFFFF" d="M306,408.75v-51h109.65l-8.926,146.625L306,537.525v-53.551l52.275-17.85l3.824-57.375H306L306,408.75zM419.475,306.75l3.825-51H306v51H419.475z"/>
	<path fill="#EEEEEE" d="M306,483.975v53.551l-100.725-33.15l-5.1-70.125h51l2.55,31.875L306,483.975z M243.525,306.75H306v-51H189.975l8.925,153H306v-51h-58.65L243.525,306.75z"/>
</svg>
