<svg xmlns="http://www.w3.org/2000/svg" viewBox="76.5 166.5 459 459">
	<path fill="#FFD600" d="M76.5,625.5v-459h459v459H76.5z"/>
	<path fill="#000001" d="M376.609,510.074c8.823,14.331,18.411,28.063,38.722,28.063c17.06,0,26.01-8.479,26.01-20.208c0-14.038-9.256-19.023-28.024-27.196l-10.289-4.386c-29.694-12.598-49.444-28.382-49.444-61.723c0-30.728,23.523-54.111,60.282-54.111c26.176,0,44.981,9.065,58.548,32.806l-32.054,20.489c-7.051-12.597-14.675-17.557-26.494-17.557c-12.062,0-19.699,7.611-19.699,17.557c0,12.291,7.65,17.264,25.309,24.875l10.29,4.387c34.998,14.904,54.735,30.128,54.735,64.349c0,36.873-29.121,57.082-68.213,57.082c-38.237,0-59.95-19.188-72.037-42.942L376.609,510.074z M228.888,511.12c6.451,11.551,16.256,20.438,30.357,20.438c13.49,0,21.254-5.329,21.254-26.048V370.5h42.496v141.538c0,42.929-24.901,62.462-61.264,62.462c-32.856,0-56.572-22.262-66.236-42.942L228.888,511.12z"/>
</svg>
