<svg xmlns="http://www.w3.org/2000/svg" viewBox="34.629 89.994 542.717 612.006">
	<path fill="#689F63" d="M305.949,702c-8.186,0-16.346-2.142-23.511-6.299l-74.868-44.293c-11.169-6.248-5.712-8.466-2.04-9.767c14.917-5.177,17.927-6.375,33.864-15.402c1.657-0.943,3.851-0.586,5.559,0.434l57.528,34.145c2.091,1.147,5.024,1.147,6.936,0L533.689,531.38c2.091-1.199,3.417-3.596,3.417-6.069V266.485c0-2.524-1.352-4.896-3.493-6.171L309.442,130.979c-2.065-1.199-4.819-1.199-6.91,0L78.413,260.34c-2.167,1.25-3.544,3.698-3.544,6.146v258.825c0,2.474,1.377,4.819,3.544,5.992l61.429,35.496c33.329,16.677,53.754-2.958,53.754-22.694V288.568c0-3.621,2.907-6.451,6.528-6.451h28.433c3.544,0,6.502,2.856,6.502,6.451v255.536c0,44.497-24.225,69.997-66.402,69.997c-12.954,0-23.18,0-51.663-14.051L58.14,566.213c-14.535-8.39-23.511-24.098-23.511-40.902V266.485c0-16.804,9.001-32.512,23.511-40.876L282.413,96.018c14.204-8.033,33.048-8.033,47.124,0l224.247,129.591c14.535,8.39,23.563,24.072,23.563,40.876v258.825c0,16.805-9.027,32.462-23.563,40.902L329.536,695.701C322.396,699.858,314.262,702,305.949,702z M487.024,446.821c0-48.45-32.742-61.353-101.668-70.456c-69.641-9.206-76.729-13.974-76.729-30.269c0-13.464,5.992-31.442,57.578-31.442c46.079,0,63.062,9.92,70.049,40.979c0.612,2.933,3.29,5.075,6.299,5.075h29.096c1.811,0,3.519-0.791,4.742-2.065c1.225-1.377,1.888-3.137,1.709-4.998c-4.514-53.499-40.061-78.438-111.895-78.438c-63.954,0-102.102,26.979-102.102,72.242c0,49.087,37.944,62.653,99.322,68.723c73.44,7.19,79.127,17.926,79.127,32.359c0,25.066-20.119,35.751-67.371,35.751c-59.339,0-72.395-14.893-76.781-44.421c-0.51-3.162-3.213-5.482-6.451-5.482h-28.994c-3.596,0-6.477,2.855-6.477,6.451c0,37.791,20.553,82.824,118.703,82.824C446.275,523.679,487.024,495.705,487.024,446.821z"/>
</svg>
