<?xml version="1.0" standalone="no"?>
<!DOCTYPE svg PUBLIC "-//W3C//DTD SVG 20010904//EN"
 "http://www.w3.org/TR/2001/REC-SVG-20010904/DTD/svg10.dtd">
<svg version="1.0" xmlns="http://www.w3.org/2000/svg"
 width="500.000000pt" height="500.000000pt" viewBox="0 0 500.000000 500.000000"
 preserveAspectRatio="xMidYMid meet">
<metadata>
Created by potrace 1.11, written by Peter Selinger 2001-2013
</metadata>
<g transform="translate(0.000000,500.000000) scale(0.100000,-0.100000)"
fill="#000000" stroke="none">
<path d="M0 2500 l0 -2500 2500 0 2500 0 0 2500 0 2500 -2500 0 -2500 0 0
-2500z m1855 1185 c104 -18 204 -56 302 -113 81 -48 223 -158 223 -174 0 -5
-61 -84 -137 -174 l-136 -164 -21 19 c-54 49 -176 123 -234 141 -87 27 -218
27 -305 0 -202 -63 -352 -263 -398 -533 -18 -107 -7 -383 20 -482 57 -216 190
-373 362 -426 77 -24 232 -26 310 -3 74 21 150 65 235 134 l71 58 114 -135
c63 -74 125 -149 138 -165 l24 -30 -71 -68 c-130 -125 -280 -207 -455 -247
-52 -12 -118 -17 -237 -16 -145 0 -177 3 -261 25 -417 112 -678 393 -775 838
-27 122 -27 497 -1 620 37 171 105 330 199 467 58 83 188 211 270 266 221 146
507 206 763 162z m1984 -49 c207 -37 330 -95 447 -211 66 -65 89 -96 122 -165
58 -122 67 -171 67 -350 0 -174 -13 -235 -70 -355 -104 -217 -315 -360 -604
-410 -56 -10 -154 -15 -297 -15 l-214 0 0 -395 0 -395 -260 0 -260 0 0 1161 0
1161 488 -5 c398 -3 504 -7 581 -21z"/>
<path d="M3290 2894 l0 -346 208 4 c234 4 280 15 361 84 143 123 145 415 3
521 -79 59 -198 82 -424 83 l-148 0 0 -346z"/>
</g>
</svg>
