<?xml version="1.0" encoding="utf-8"?>
<!-- Generator: Adobe Illustrator 16.0.0, SVG Export Plug-In . SVG Version: 6.00 Build 0)  -->
<!DOCTYPE svg PUBLIC "-//W3C//DTD SVG 1.1//EN" "http://www.w3.org/Graphics/SVG/1.1/DTD/svg11.dtd">
<svg version="1.1" id="Layer_1" xmlns="http://www.w3.org/2000/svg" xmlns:xlink="http://www.w3.org/1999/xlink" x="0px" y="0px"
	 width="256.823px" height="28.153px" viewBox="0 0 256.823 28.153" enable-background="new 0 0 256.823 28.153"
	 xml:space="preserve">
<g>
	<path fill="#FF8200" d="M16.469,20.793c-1.749,0.892-4.225,1.155-5.776,1.155C5.05,21.948,0,18.252,0,11.717
		C0,6.04,3.795,1.222,11.023,1.222c2.509,0,4.291,0.594,5.446,1.154l-0.165,2.509c-1.815-1.022-4.06-1.386-5.743-1.386
		c-5.083,0-7.591,3.696-7.591,7.888c0,4.72,3.201,8.251,7.789,8.251c1.419,0,3.564-0.33,5.544-1.386L16.469,20.793z"/>
	<path fill="#FF8200" d="M19.866,0h2.541v21.552h-2.541V0z"/>
	<path fill="#FF8200" d="M28.281,3.993c-0.891,0-1.65-0.924-1.65-1.848c0-0.891,0.726-1.815,1.65-1.815
		c0.891,0,1.683,0.858,1.683,1.782S29.172,3.993,28.281,3.993z M27.027,6.601h2.541v14.951h-2.541V6.601z"/>
	<path fill="#FF8200" d="M46.3,21.552h-2.541c0,0,0.132-3.465,0.099-6.469c0,0,0-1.98-0.033-3.168
		c-0.066-2.277-0.264-3.433-2.542-3.433c-0.792,0-1.848,0.265-2.079,0.396c-0.33,0.166-1.782,1.684-2.476,2.641v10.033h-2.541V10.76
		c0-1.188-0.033-2.212-0.132-2.971l-0.132-1.188h2.343l0.396,2.212c1.221-1.485,2.607-2.607,4.852-2.607
		c2.673,0,4.489,0.858,4.753,3.928c0.132,1.485,0.099,2.97,0.099,4.456C46.366,17.063,46.3,21.552,46.3,21.552z"/>
	<path fill="#FF8200" d="M52.14,3.993c-0.891,0-1.65-0.924-1.65-1.848c0-0.891,0.727-1.815,1.65-1.815
		c0.891,0,1.683,0.858,1.683,1.782S53.031,3.993,52.14,3.993z M50.886,6.601h2.541v14.951h-2.541V6.601z"/>
	<path fill="#FF8200" d="M68.443,20.562c-1.485,1.023-3.268,1.387-4.95,1.387c-3.862,0-6.635-2.772-6.635-7.987
		c0-5.446,3.697-7.756,6.7-7.756c2.739,0,4.653,0.692,4.885,2.673c0.032,0.297,0.032,0.727,0.032,1.09h-2.376
		c0-1.287-0.692-1.584-2.409-1.584c-1.023,0-1.485,0.131-1.717,0.264c-0.264,0.165-2.343,1.188-2.343,5.215
		c0,4.191,2.409,5.908,4.555,5.908c1.222,0,3.069-0.693,4.06-1.519L68.443,20.562z"/>
	<path fill="#FF8200" d="M81.378,21.552c-0.165-0.494-0.297-0.99-0.362-1.419l-0.1-0.627c-1.221,1.849-2.707,2.476-4.588,2.476
		c-3.598,0-6.402-2.707-6.402-7.559c0-5.182,2.508-8.218,7.162-8.218c1.353,0,2.871,0.429,3.762,1.584l0.562-1.188h1.979
		l-0.23,2.113v8.383c0,1.122,0.33,3.399,0.693,4.455H81.378z M80.62,13.202c0-3.334-1.221-4.818-3.466-4.818
		c-1.188,0-2.442,0.33-2.673,0.561c-0.396,0.396-1.816,1.815-1.816,5.115c0,4.291,1.98,5.744,4.094,5.744
		c1.617,0,2.904-1.156,3.861-3.467V13.202z"/>
	<path fill="#FF8200" d="M87.779,0h2.541v21.552h-2.541V0z"/>
	<path fill="#FF8200" d="M98.108,21.552h-2.574V1.617h2.574v9.241c0.528-0.494,1.881-1.716,3.201-3.432l4.521-5.81h3.004
		l-4.422,5.743c-0.892,1.154-1.684,1.98-2.244,2.607c-0.33,0.363-0.628,0.66-0.925,0.891l1.089,1.123
		c0.693,0.726,1.584,1.814,2.509,3.102l4.62,6.469h-3.201l-4.785-6.699c-1.254-1.783-2.74-2.938-3.367-3.433V21.552z"/>
	<path fill="#FF8200" d="M113.387,13.763v0.496c0,3.564,1.748,5.512,4.885,5.512c1.748,0,3.795-0.76,4.686-1.552l0.198,2.311
		c-1.319,0.792-2.871,1.419-5.677,1.419c-3.762,0-6.732-2.904-6.732-7.822c0-5.148,2.805-7.921,6.666-7.921
		c4.588,0,6.008,2.376,6.008,7.558H113.387z M121.11,11.782c-0.1-2.904-1.387-3.432-3.861-3.432c-0.693,0-1.816,0.297-1.98,0.462
		c-0.198,0.198-1.354,1.089-1.617,2.97H121.11z"/>
	<path fill="#FF8200" d="M131.965,18.087l3.895-11.486h2.51l-5.545,15.645c-1.123,3.168-2.212,5.908-2.212,5.908h-2.706
		c0,0,1.154-2.476,2.014-4.555l0.791-1.881l-5.809-15.117h2.707L131.965,18.087z"/>
	<path fill="#888B8D" d="M156.151,5.406l-0.201,1.825c-0.174-0.125-0.398-0.226-0.623-0.326c-0.4-0.174-0.977-0.324-1.676-0.324
		c-1.773,0-2.225,1.149-2.225,2.999v0.649h2.9v1.5h-2.9v9.822h-1.924v-9.822h-2.074v-1.5h2.074V9.431c0-3.3,1.523-4.5,3.998-4.5
		c0.775,0,1.426,0.101,1.9,0.25L156.151,5.406z"/>
	<path fill="#888B8D" d="M160.676,21.853c-3.15,0-5.25-2.35-5.25-5.949c0-3.324,1.926-5.973,5.523-5.973
		c3.176,0,5.275,2.273,5.275,5.973C166.225,19.403,164.1,21.853,160.676,21.853z M160.7,11.579c-0.898,0-1.699,0.4-1.924,0.625
		c-0.25,0.25-1.275,1.625-1.275,3.574c0,3.6,1.926,4.424,3.426,4.424c0.799,0,1.674-0.35,1.949-0.625
		c0.275-0.274,1.273-1.574,1.273-3.498C164.149,13.979,163.475,11.579,160.7,11.579z"/>
	<path fill="#888B8D" d="M175.526,12.03l-1.576,0.449c0-0.175-0.074-0.925-0.799-0.925c-1.1,0-2,1.825-2.4,2.8v7.197h-1.924v-8.223
		c0-0.875-0.025-1.625-0.1-2.199l-0.1-0.9h1.773l0.326,1.801c0.398-0.976,1.35-2.075,2.574-2.075c1.299,0,1.975,0.575,2.174,1.649
		c0.025,0.176,0.051,0.275,0.051,0.301V12.03z"/>
	<path fill="#888B8D" d="M192.899,6.431h1.85v15.121H192.6l-8.498-12.246v12.246h-1.875V6.456h2.125l8.547,12.347V6.431z"/>
	<path fill="#888B8D" d="M207.973,21.552h-1.75l-0.299-1.648c-1.15,1.549-2,1.974-3.699,1.974c-2,0-3.625-0.825-3.625-3.724v-7.924
		h1.926v6.574c0,1.85,0.148,3.398,1.873,3.398c0.977,0,1.725-0.375,1.875-0.449c0.1-0.051,1.076-0.95,1.574-2v-7.523h1.926v8.199
		c0,0.898,0.025,1.648,0.1,2.224L207.973,21.552z"/>
	<path fill="#888B8D" d="M217.975,12.03l-1.576,0.449c0-0.175-0.074-0.925-0.799-0.925c-1.1,0-2,1.825-2.4,2.8v7.197h-1.924v-8.223
		c0-0.875-0.025-1.625-0.1-2.199l-0.1-0.9h1.773l0.326,1.801c0.398-0.976,1.35-2.075,2.574-2.075c1.299,0,1.975,0.575,2.174,1.649
		c0.025,0.176,0.051,0.275,0.051,0.301V12.03z"/>
	<path fill="#888B8D" d="M222.676,21.877c-1.275,0-2.65-0.325-3.525-0.925l0.225-1.799c0.826,0.524,1.676,1.149,3.15,1.149
		c1.6,0,2.35-0.726,2.35-1.6c0-2.3-5.648-2.175-5.648-5.674c0-1.7,1.324-3.099,4.049-3.099c1.5,0,2.475,0.424,3.248,0.85
		l-0.199,1.799c-0.975-0.899-2.225-1.1-3.025-1.1c-1.273,0-2.148,0.5-2.148,1.4c0,2.273,5.648,2.074,5.648,5.673
		C226.799,20.228,225.549,21.877,222.676,21.877z"/>
	<path fill="#888B8D" d="M230.401,8.255c-0.676,0-1.25-0.699-1.25-1.398c0-0.676,0.551-1.375,1.25-1.375
		c0.674,0,1.273,0.649,1.273,1.35C231.674,7.53,231.075,8.255,230.401,8.255z M229.452,10.229h1.924v11.322h-1.924V10.229z"/>
	<path fill="#888B8D" d="M244.047,21.552h-1.924c0,0,0.1-2.624,0.076-4.898c0,0,0-1.5-0.025-2.399
		c-0.051-1.725-0.201-2.599-1.926-2.599c-0.6,0-1.398,0.199-1.574,0.299c-0.25,0.125-1.35,1.275-1.875,2v7.598h-1.924V13.38
		c0-0.9-0.025-1.676-0.1-2.25l-0.1-0.9h1.773l0.301,1.676c0.924-1.125,1.975-1.975,3.674-1.975c2.023,0,3.398,0.649,3.6,2.974
		c0.1,1.125,0.074,2.249,0.074,3.374C244.098,18.153,244.047,21.552,244.047,21.552z"/>
	<path fill="#888B8D" d="M248.776,22.978c0,1.773,0.699,2.224,2.5,2.224c2.123,0,3.523-0.675,3.523-2.849
		c0-0.5-0.051-1.301-0.051-2.324c-0.875,0.975-1.799,1.475-3.299,1.475c-2.699,0-4.824-1.875-4.824-5.35
		c0-3.924,1.875-6.223,5.398-6.223c1.025,0,2.201,0.299,2.875,1.199l0.426-0.9h1.498l-0.174,1.6v8.373
		c0,0.875,0.025,2.074,0.025,2.4c0,2.674-1.9,4.248-5.324,4.248c-2.475,0-4.549-0.774-4.549-3.499L248.776,22.978z M254.725,15.229
		c0-2.525-0.926-3.65-2.625-3.65c-0.9,0-1.85,0.25-2.025,0.426c-0.299,0.3-1.375,1.399-1.375,3.898c0,3.174,1.375,3.949,3,3.949
		c1.301,0,2.449-0.949,3.025-2.125V15.229z"/>
</g>
<g>
	<path fill="#FF8200" d="M142.952,6.147c-1.246,0-2.295-1-2.295-2.264s1.049-2.264,2.295-2.264c1.248,0,2.271,1.008,2.271,2.264
		S144.2,6.147,142.952,6.147z M142.944,2.077c-1,0-1.822,0.791-1.822,1.799s0.814,1.814,1.822,1.814c1,0,1.814-0.816,1.814-1.814
		C144.758,2.868,143.944,2.077,142.944,2.077z M143.512,5.091c-0.104-0.104-0.191-0.232-0.281-0.344l-0.502-0.664h-0.209v1.008
		h-0.408V2.644c0.24-0.016,0.488-0.039,0.729-0.039c0.471,0,0.928,0.184,0.928,0.727c0,0.336-0.225,0.617-0.545,0.705
		c0.264,0.367,0.537,0.727,0.848,1.055H143.512z M142.784,2.972h-0.264v0.76h0.264c0.297,0,0.527-0.072,0.527-0.408
		C143.311,3.028,143.024,2.972,142.784,2.972z"/>
</g>
</svg>
