<?xml version="1.0" encoding="utf-8"?>
<!-- Generator: Adobe Illustrator 16.0.0, SVG Export Plug-In . SVG Version: 6.00 Build 0)  -->
<!DOCTYPE svg PUBLIC "-//W3C//DTD SVG 1.1//EN" "http://www.w3.org/Graphics/SVG/1.1/DTD/svg11.dtd">
<svg version="1.1" id="Layer_1" xmlns="http://www.w3.org/2000/svg" xmlns:xlink="http://www.w3.org/1999/xlink" x="0px" y="0px"
	 width="523.682px" height="28.55px" viewBox="0 0 523.682 28.55" enable-background="new 0 0 523.682 28.55" xml:space="preserve">
<g>
	<path fill="#FF8200" d="M16.469,20.793c-1.749,0.892-4.225,1.155-5.776,1.155C5.05,21.948,0,18.252,0,11.717
		C0,6.04,3.795,1.221,11.023,1.221c2.509,0,4.291,0.594,5.446,1.155l-0.165,2.508c-1.815-1.022-4.06-1.386-5.743-1.386
		c-5.083,0-7.591,3.697-7.591,7.888c0,4.72,3.201,8.251,7.789,8.251c1.419,0,3.564-0.33,5.544-1.386L16.469,20.793z"/>
	<path fill="#FF8200" d="M19.866,0h2.541v21.552h-2.541V0z"/>
	<path fill="#FF8200" d="M28.281,3.993c-0.891,0-1.65-0.924-1.65-1.848c0-0.891,0.726-1.815,1.65-1.815
		c0.891,0,1.683,0.858,1.683,1.782C29.964,3.037,29.172,3.993,28.281,3.993z M27.027,6.601h2.541v14.951h-2.541V6.601z"/>
	<path fill="#FF8200" d="M46.3,21.552h-2.541c0,0,0.132-3.465,0.099-6.469c0,0,0-1.98-0.033-3.168
		c-0.066-2.277-0.264-3.433-2.542-3.433c-0.792,0-1.848,0.265-2.079,0.396c-0.33,0.166-1.782,1.684-2.476,2.641v10.033h-2.541V10.76
		c0-1.188-0.033-2.212-0.132-2.971l-0.132-1.188h2.343l0.396,2.212c1.221-1.485,2.607-2.607,4.852-2.607
		c2.673,0,4.489,0.858,4.753,3.928c0.132,1.485,0.099,2.97,0.099,4.456C46.366,17.063,46.3,21.552,46.3,21.552z"/>
	<path fill="#FF8200" d="M52.14,3.993c-0.891,0-1.65-0.924-1.65-1.848c0-0.891,0.727-1.815,1.65-1.815
		c0.891,0,1.683,0.858,1.683,1.782C53.823,3.037,53.031,3.993,52.14,3.993z M50.886,6.601h2.541v14.951h-2.541V6.601z"/>
	<path fill="#FF8200" d="M68.443,20.562c-1.485,1.023-3.268,1.387-4.951,1.387c-3.862,0-6.634-2.772-6.634-7.987
		c0-5.446,3.697-7.756,6.7-7.756c2.739,0,4.653,0.692,4.885,2.673c0.033,0.297,0.033,0.727,0.033,1.09h-2.376
		c0-1.287-0.693-1.584-2.409-1.584c-1.023,0-1.485,0.131-1.716,0.264c-0.264,0.165-2.343,1.188-2.343,5.215
		c0,4.191,2.409,5.908,4.555,5.908c1.221,0,3.069-0.693,4.06-1.519L68.443,20.562z"/>
	<path fill="#FF8200" d="M81.378,21.552c-0.165-0.494-0.297-0.99-0.363-1.419l-0.099-0.627c-1.221,1.849-2.707,2.476-4.588,2.476
		c-3.597,0-6.403-2.707-6.403-7.559c0-5.182,2.508-8.218,7.162-8.218c1.353,0,2.872,0.429,3.763,1.584l0.561-1.188h1.98
		l-0.231,2.113v8.383c0,1.122,0.33,3.399,0.693,4.455H81.378z M80.62,13.202c0-3.334-1.221-4.818-3.466-4.818
		c-1.188,0-2.442,0.33-2.673,0.561c-0.396,0.396-1.815,1.815-1.815,5.115c0,4.291,1.98,5.744,4.093,5.744
		c1.617,0,2.904-1.156,3.862-3.467V13.202z"/>
	<path fill="#FF8200" d="M87.779,0h2.541v21.552h-2.541V0z"/>
	<path fill="#FF8200" d="M107.183,14.489c-0.891,0-1.98-0.033-3.103-0.165v7.228h-2.607V1.617h6.469
		c3.664,0,6.766,2.245,6.766,6.304C114.708,11.815,110.913,14.489,107.183,14.489z M107.051,3.729h-2.971v8.449
		c0,0,1.188,0.133,2.112,0.133c2.938,0,5.545-0.99,5.545-4.391C111.738,5.116,110.187,3.729,107.051,3.729z"/>
	<path fill="#FF8200" d="M129.854,21.552h-2.541c0,0,0.099-3.465,0.099-6.469c0-0.693,0-1.98-0.033-3.168
		c-0.066-2.277-0.264-3.433-2.542-3.433c-0.825,0-1.881,0.265-2.112,0.396c-0.33,0.166-1.749,1.684-2.442,2.641v10.033h-2.541V0
		h2.541v8.714c1.221-1.486,2.542-2.509,4.786-2.509c2.673,0,4.522,0.858,4.753,3.928c0.132,1.485,0.099,2.97,0.099,4.456
		C129.921,17.063,129.854,21.552,129.854,21.552z"/>
	<path fill="#FF8200" d="M144.672,21.552c-0.165-0.494-0.298-0.99-0.363-1.419l-0.1-0.627c-1.221,1.849-2.706,2.476-4.587,2.476
		c-3.598,0-6.403-2.707-6.403-7.559c0-5.182,2.509-8.218,7.162-8.218c1.354,0,2.871,0.429,3.763,1.584l0.561-1.188h1.98l-0.23,2.113
		v8.383c0,1.122,0.33,3.399,0.692,4.455H144.672z M143.912,13.202c0-3.334-1.221-4.818-3.465-4.818c-1.188,0-2.442,0.33-2.674,0.561
		c-0.396,0.396-1.815,1.815-1.815,5.115c0,4.291,1.98,5.744,4.093,5.744c1.617,0,2.904-1.156,3.861-3.467V13.202z"/>
	<path fill="#FF8200" d="M159.916,8.978l-2.079,0.594c0-0.23-0.099-1.221-1.056-1.221c-1.452,0-2.641,2.409-3.169,3.696v9.505
		h-2.541V10.694c0-1.156-0.033-2.146-0.132-2.905l-0.133-1.188h2.344l0.429,2.377c0.528-1.287,1.782-2.739,3.399-2.739
		c1.717,0,2.607,0.759,2.872,2.179c0.033,0.23,0.065,0.362,0.065,0.396V8.978z"/>
	<path fill="#FF8200" d="M183.942,21.552h-2.541c0,0,0.132-3.465,0.099-6.469c0,0,0-1.98-0.033-3.168
		c-0.065-2.277-0.264-3.433-2.541-3.433c-0.792,0-1.849,0.265-2.079,0.396c-0.33,0.166-1.782,1.684-2.476,2.641v10.033h-2.541
		V11.519c0-2.014-0.528-3.036-2.509-3.036c-0.792,0-1.849,0.265-2.079,0.396c-0.33,0.166-1.782,1.684-2.476,2.641v10.033h-2.541
		V10.76c0-1.188-0.033-2.212-0.132-2.971l-0.133-1.188h2.344l0.396,2.212c1.221-1.485,2.607-2.607,4.852-2.607
		c2.343,0,3.993,0.595,4.555,2.806c1.254-1.584,2.805-2.806,5.05-2.806c2.673,0,4.488,0.858,4.752,3.928
		c0.133,1.485,0.1,2.97,0.1,4.456C184.009,17.063,183.942,21.552,183.942,21.552z"/>
	<path fill="#FF8200" d="M198.758,21.552c-0.165-0.494-0.298-0.99-0.363-1.419l-0.1-0.627c-1.221,1.849-2.706,2.476-4.587,2.476
		c-3.598,0-6.403-2.707-6.403-7.559c0-5.182,2.509-8.218,7.162-8.218c1.354,0,2.871,0.429,3.763,1.584l0.561-1.188h1.98l-0.23,2.113
		v8.383c0,1.122,0.33,3.399,0.692,4.455H198.758z M197.998,13.202c0-3.334-1.221-4.818-3.465-4.818c-1.188,0-2.442,0.33-2.674,0.561
		c-0.396,0.396-1.815,1.815-1.815,5.115c0,4.291,1.98,5.744,4.093,5.744c1.617,0,2.904-1.156,3.861-3.467V13.202z"/>
	<path fill="#FF8200" d="M215.554,20.562c-1.485,1.023-3.268,1.387-4.951,1.387c-3.861,0-6.634-2.772-6.634-7.987
		c0-5.446,3.696-7.756,6.7-7.756c2.739,0,4.653,0.692,4.885,2.673c0.033,0.297,0.033,0.727,0.033,1.09h-2.377
		c0-1.287-0.693-1.584-2.409-1.584c-1.023,0-1.485,0.131-1.716,0.264c-0.265,0.165-2.344,1.188-2.344,5.215
		c0,4.191,2.409,5.908,4.555,5.908c1.221,0,3.069-0.693,4.06-1.519L215.554,20.562z"/>
	<path fill="#FF8200" d="M223.968,21.948c-4.158,0-6.931-3.103-6.931-7.855c0-4.389,2.541-7.888,7.294-7.888
		c4.191,0,6.964,3.003,6.964,7.888C231.295,18.714,228.49,21.948,223.968,21.948z M224.001,8.384c-1.188,0-2.244,0.527-2.541,0.824
		c-0.33,0.33-1.684,2.146-1.684,4.721c0,4.752,2.542,5.842,4.521,5.842c1.057,0,2.212-0.463,2.575-0.826
		c0.362-0.362,1.683-2.078,1.683-4.62C228.556,11.552,227.665,8.384,224.001,8.384z"/>
	<path fill="#FF8200" d="M234.726,0h2.541v21.552h-2.541V0z"/>
	<path fill="#FF8200" d="M247.629,21.948c-4.158,0-6.931-3.103-6.931-7.855c0-4.389,2.541-7.888,7.294-7.888
		c4.191,0,6.964,3.003,6.964,7.888C254.956,18.714,252.151,21.948,247.629,21.948z M247.662,8.384c-1.188,0-2.244,0.527-2.541,0.824
		c-0.33,0.33-1.684,2.146-1.684,4.721c0,4.752,2.542,5.842,4.521,5.842c1.057,0,2.212-0.463,2.575-0.826
		c0.362-0.362,1.683-2.078,1.683-4.62C252.217,11.552,251.326,8.384,247.662,8.384z"/>
	<path fill="#FF8200" d="M260.037,23.434c0,2.343,0.924,2.938,3.3,2.938c2.806,0,4.654-0.892,4.654-3.763
		c0-0.66-0.066-1.717-0.066-3.069c-1.155,1.287-2.376,1.947-4.356,1.947c-3.564,0-6.37-2.476-6.37-7.063
		c0-5.182,2.476-8.218,7.129-8.218c1.354,0,2.904,0.396,3.796,1.584l0.561-1.188h1.98l-0.23,2.113v11.057
		c0,1.154,0.032,2.738,0.032,3.168c0,3.531-2.508,5.611-7.029,5.611c-3.268,0-6.007-1.023-6.007-4.621L260.037,23.434z
		 M267.892,13.202c0-3.334-1.221-4.818-3.465-4.818c-1.188,0-2.442,0.33-2.674,0.561c-0.396,0.396-1.815,1.848-1.815,5.148
		c0,4.191,1.815,5.215,3.961,5.215c1.716,0,3.234-1.254,3.993-2.805V13.202z"/>
	<path fill="#FF8200" d="M280.166,18.087l3.895-11.486h2.509l-5.545,15.645c-1.122,3.168-2.211,5.908-2.211,5.908h-2.707
		c0,0,1.155-2.476,2.014-4.555l0.792-1.881l-5.809-15.117h2.706L280.166,18.087z"/>
	<path fill="#888B8D" d="M311.743,21.853c-3.149,0-5.249-2.35-5.249-5.949c0-3.324,1.925-5.973,5.523-5.973
		c3.175,0,5.274,2.273,5.274,5.973C317.292,19.403,315.167,21.853,311.743,21.853z M311.768,11.579c-0.899,0-1.699,0.4-1.924,0.625
		c-0.25,0.25-1.275,1.625-1.275,3.574c0,3.6,1.925,4.424,3.425,4.424c0.8,0,1.675-0.35,1.949-0.625
		c0.275-0.274,1.274-1.574,1.274-3.498C315.217,13.979,314.542,11.579,311.768,11.579z"/>
	<path fill="#888B8D" d="M329.991,18.553l2.725-8.323h1.899l-3.924,11.322h-1.449l-2.675-7.098l-2.449,7.098h-1.45l-4.248-11.322
		h2.049l3.05,8.323l3.049-8.823L329.991,18.553z"/>
	<path fill="#888B8D" d="M337.744,15.653v0.375c0,2.699,1.324,4.174,3.699,4.174c1.324,0,2.874-0.574,3.549-1.174l0.149,1.749
		c-0.999,0.601-2.174,1.075-4.299,1.075c-2.849,0-5.099-2.199-5.099-5.924c0-3.898,2.125-5.998,5.049-5.998
		c3.475,0,4.549,1.799,4.549,5.723H337.744z M343.593,14.154c-0.075-2.2-1.05-2.6-2.925-2.6c-0.524,0-1.375,0.226-1.499,0.351
		c-0.15,0.149-1.025,0.824-1.226,2.249H343.593z"/>
	<path fill="#888B8D" d="M354.643,12.03l-1.575,0.449c0-0.175-0.075-0.925-0.8-0.925c-1.1,0-1.999,1.825-2.399,2.8v7.197h-1.924
		v-8.223c0-0.875-0.025-1.625-0.101-2.199l-0.1-0.9h1.774l0.325,1.801c0.399-0.976,1.35-2.075,2.574-2.075
		c1.3,0,1.975,0.575,2.174,1.649c0.025,0.176,0.051,0.275,0.051,0.301V12.03z"/>
	<path fill="#888B8D" d="M357.494,15.653v0.375c0,2.699,1.324,4.174,3.699,4.174c1.324,0,2.874-0.574,3.549-1.174l0.149,1.749
		c-0.999,0.601-2.174,1.075-4.299,1.075c-2.849,0-5.099-2.199-5.099-5.924c0-3.898,2.125-5.998,5.049-5.998
		c3.475,0,4.549,1.799,4.549,5.723H357.494z M363.343,14.154c-0.075-2.2-1.05-2.6-2.925-2.6c-0.524,0-1.375,0.226-1.499,0.351
		c-0.15,0.149-1.025,0.824-1.226,2.249H363.343z"/>
	<path fill="#888B8D" d="M377.142,21.552h-1.774c-0.075-0.274-0.175-0.875-0.225-1.35c-1.125,1.176-2.025,1.65-3.524,1.65
		c-2.699,0-4.824-2.375-4.824-5.898c0-3.824,2.225-6.023,5.749-6.023c1.074,0,1.699,0.125,2.475,0.5V5.231h1.924v13.197
		c0,0.898,0.025,1.648,0.101,2.224L377.142,21.552z M375.018,13.679c0-1.6-0.825-2.1-2.649-2.1c-0.726,0-1.825,0.125-2.075,0.375
		c-0.3,0.25-1.399,1.65-1.399,3.824c0,3.024,1.774,4.424,3.024,4.424c1.324,0,2.449-1,3.1-1.975V13.679z"/>
	<path fill="#888B8D" d="M388.818,21.877c-1.025,0-2.35-0.125-3.874-0.425V5.231h1.924v5.398c0.925-0.375,2.075-0.699,3.499-0.699
		c2.6,0,4.424,1.523,4.424,5.723C394.791,19.452,392.542,21.877,388.818,21.877z M390.018,11.655c-0.925,0-1.449,0.049-1.6,0.074
		c-0.425,0.1-1.024,0.325-1.55,0.6v7.724c0.875,0.125,0.95,0.149,1.85,0.149c2.5,0,3.975-1.499,3.975-4.398
		C392.692,13.404,392.018,11.655,390.018,11.655z"/>
	<path fill="#888B8D" d="M401.268,18.928l2.949-8.698h1.899l-4.199,11.848c-0.85,2.399-1.675,4.474-1.675,4.474h-2.049
		c0,0,0.874-1.874,1.524-3.448l0.6-1.426l-4.398-11.447h2.049L401.268,18.928z"/>
	<path fill="#888B8D" d="M424.465,20.978c-1.324,0.675-3.199,0.875-4.373,0.875c-4.274,0-8.099-2.8-8.099-7.748
		c0-4.299,2.874-7.948,8.348-7.948c1.9,0,3.25,0.45,4.124,0.874l-0.125,1.9c-1.374-0.775-3.074-1.051-4.349-1.051
		c-3.849,0-5.748,2.8-5.748,5.975c0,3.574,2.424,6.248,5.898,6.248c1.074,0,2.699-0.25,4.198-1.05L424.465,20.978z"/>
	<path fill="#888B8D" d="M427.043,5.231h1.924v16.32h-1.924V5.231z"/>
	<path fill="#888B8D" d="M433.417,8.255c-0.675,0-1.25-0.699-1.25-1.398c0-0.676,0.55-1.375,1.25-1.375
		c0.675,0,1.274,0.649,1.274,1.35C434.691,7.53,434.092,8.255,433.417,8.255z M432.468,10.229h1.924v11.322h-1.924V10.229z"/>
	<path fill="#888B8D" d="M447.064,21.552h-1.924c0,0,0.1-2.624,0.075-4.898c0,0,0-1.5-0.025-2.399
		c-0.05-1.725-0.2-2.599-1.925-2.599c-0.6,0-1.399,0.199-1.574,0.299c-0.25,0.125-1.35,1.275-1.875,2v7.598h-1.924V13.38
		c0-0.9-0.025-1.676-0.101-2.25l-0.1-0.9h1.774l0.3,1.676c0.925-1.125,1.975-1.975,3.674-1.975c2.024,0,3.399,0.649,3.6,2.974
		c0.1,1.125,0.075,2.249,0.075,3.374C447.115,18.153,447.064,21.552,447.064,21.552z"/>
	<path fill="#888B8D" d="M451.492,8.255c-0.675,0-1.25-0.699-1.25-1.398c0-0.676,0.551-1.375,1.25-1.375
		c0.675,0,1.274,0.649,1.274,1.35C452.767,7.53,452.167,8.255,451.492,8.255z M450.543,10.229h1.924v11.322h-1.924V10.229z"/>
	<path fill="#888B8D" d="M463.841,20.802c-1.125,0.775-2.475,1.051-3.749,1.051c-2.925,0-5.024-2.1-5.024-6.049
		c0-4.124,2.8-5.873,5.074-5.873c2.074,0,3.523,0.524,3.699,2.023c0.024,0.226,0.024,0.551,0.024,0.825h-1.8
		c0-0.975-0.524-1.2-1.824-1.2c-0.774,0-1.125,0.101-1.3,0.201c-0.2,0.125-1.774,0.898-1.774,3.948c0,3.175,1.824,4.474,3.449,4.474
		c0.925,0,2.324-0.524,3.074-1.149L463.841,20.802z"/>
	<path fill="#888B8D" d="M473.64,21.552c-0.125-0.375-0.225-0.75-0.274-1.074l-0.075-0.475c-0.925,1.399-2.05,1.874-3.475,1.874
		c-2.724,0-4.849-2.05-4.849-5.724c0-3.924,1.899-6.223,5.424-6.223c1.024,0,2.175,0.324,2.85,1.199l0.425-0.9h1.499l-0.175,1.6
		v6.35c0,0.85,0.25,2.574,0.525,3.373H473.64z M473.065,15.229c0-2.525-0.925-3.65-2.625-3.65c-0.899,0-1.85,0.25-2.024,0.426
		c-0.3,0.3-1.375,1.375-1.375,3.873c0,3.25,1.5,4.35,3.1,4.35c1.225,0,2.199-0.875,2.925-2.625V15.229z"/>
	<path fill="#888B8D" d="M478.492,5.231h1.924v16.32h-1.924V5.231z"/>
	<path fill="#888B8D" d="M486.316,21.552h-1.95V6.456h1.95v6.998c0.399-0.375,1.424-1.3,2.424-2.6l3.424-4.398h2.275l-3.35,4.349
		c-0.675,0.875-1.274,1.5-1.699,1.975c-0.25,0.274-0.476,0.5-0.7,0.675l0.825,0.85c0.524,0.551,1.199,1.375,1.899,2.35l3.499,4.898
		h-2.425l-3.624-5.073c-0.949-1.35-2.074-2.225-2.549-2.6V21.552z"/>
	<path fill="#888B8D" d="M497.892,15.653v0.375c0,2.699,1.324,4.174,3.699,4.174c1.324,0,2.874-0.574,3.549-1.174l0.149,1.749
		c-0.999,0.601-2.174,1.075-4.299,1.075c-2.849,0-5.099-2.199-5.099-5.924c0-3.898,2.125-5.998,5.049-5.998
		c3.475,0,4.549,1.799,4.549,5.723H497.892z M503.74,14.154c-0.075-2.2-1.05-2.6-2.925-2.6c-0.524,0-1.374,0.226-1.499,0.351
		c-0.15,0.149-1.025,0.824-1.226,2.249H503.74z"/>
	<path fill="#888B8D" d="M511.966,18.928l2.949-8.698h1.899l-4.199,11.848c-0.85,2.399-1.675,4.474-1.675,4.474h-2.049
		c0,0,0.874-1.874,1.524-3.448l0.6-1.426l-4.398-11.447h2.049L511.966,18.928z"/>
</g>
<g>
	<path fill="#888B8D" d="M521.41,9.928c-1.246,0-2.295-1.001-2.295-2.264c0-1.264,1.049-2.264,2.295-2.264
		c1.248,0,2.271,1.008,2.271,2.264C523.682,8.919,522.658,9.928,521.41,9.928z M521.402,5.856c-1,0-1.822,0.792-1.822,1.799
		c0,1.008,0.814,1.815,1.822,1.815c1,0,1.814-0.816,1.814-1.815C523.217,6.648,522.402,5.856,521.402,5.856z M521.971,8.871
		c-0.104-0.104-0.191-0.232-0.281-0.344l-0.502-0.664h-0.209v1.008h-0.408V6.424c0.24-0.016,0.488-0.039,0.729-0.039
		c0.471,0,0.928,0.184,0.928,0.727c0,0.336-0.225,0.616-0.545,0.704c0.264,0.368,0.537,0.728,0.848,1.056H521.971z M521.242,6.752
		h-0.264v0.76h0.264c0.297,0,0.527-0.072,0.527-0.408C521.77,6.809,521.482,6.752,521.242,6.752z"/>
</g>
<g>
	<path fill="#888B8D" d="M299.506,21.846c-0.925,0-1.774-0.176-2.5-0.551v5.249h-1.924v-13.17c0-0.875-0.051-1.65-0.101-2.225
		l-0.1-0.926h1.774l0.3,1.676c1.2-1.4,2.274-1.975,3.874-1.975c2.3,0,4.099,1.499,4.099,5.498
		C304.929,19.296,302.705,21.846,299.506,21.846z M300.38,11.649c-0.574,0-1.324,0.199-1.499,0.299
		c-0.2,0.125-1.35,1.225-1.875,2.025v5.573c0.226,0.125,0.45,0.25,0.675,0.325c0.4,0.175,0.95,0.324,1.55,0.324
		c2.475,0,3.6-1.824,3.6-4.549C302.83,14.047,302.53,11.649,300.38,11.649z"/>
</g>
</svg>
