<?xml version="1.0" encoding="utf-8"?>
<!-- Generator: Adobe Illustrator 16.0.0, SVG Export Plug-In . SVG Version: 6.00 Build 0)  -->
<!DOCTYPE svg PUBLIC "-//W3C//DTD SVG 1.1//EN" "http://www.w3.org/Graphics/SVG/1.1/DTD/svg11.dtd">
<svg version="1.1" id="Layer_1" xmlns="http://www.w3.org/2000/svg" xmlns:xlink="http://www.w3.org/1999/xlink" x="0px" y="0px"
	 width="146.24px" height="29.15px" viewBox="0 0 146.24 29.15" enable-background="new 0 0 146.24 29.15" xml:space="preserve">
<g>
	<path fill="#FF8200" d="M16.968,21.292c-1.749,0.892-4.225,1.155-5.776,1.155c-5.644,0-10.693-3.696-10.693-10.231
		c0-5.677,3.795-10.496,11.023-10.496c2.509,0,4.291,0.594,5.446,1.155l-0.165,2.508c-1.815-1.023-4.06-1.386-5.743-1.386
		c-5.083,0-7.591,3.697-7.591,7.888c0,4.72,3.201,8.251,7.789,8.251c1.419,0,3.564-0.33,5.544-1.386L16.968,21.292z"/>
	<path fill="#FF8200" d="M20.365,0.499h2.541V22.05h-2.541V0.499z"/>
	<path fill="#FF8200" d="M28.779,4.492c-0.891,0-1.65-0.924-1.65-1.848c0-0.891,0.727-1.815,1.65-1.815
		c0.892,0,1.684,0.858,1.684,1.782C30.463,3.535,29.671,4.492,28.779,4.492z M27.525,7.1h2.541V22.05h-2.541V7.1z"/>
	<path fill="#FF8200" d="M46.799,22.05h-2.541c0,0,0.132-3.465,0.1-6.469c0,0,0-1.98-0.033-3.168
		c-0.066-2.277-0.265-3.433-2.542-3.433c-0.792,0-1.849,0.264-2.079,0.396c-0.33,0.165-1.782,1.683-2.476,2.64V22.05h-2.541V11.258
		c0-1.188-0.033-2.211-0.132-2.971L34.422,7.1h2.344l0.396,2.211c1.221-1.485,2.607-2.607,4.852-2.607
		c2.673,0,4.488,0.858,4.752,3.928c0.133,1.485,0.1,2.97,0.1,4.456C46.865,17.562,46.799,22.05,46.799,22.05z"/>
	<path fill="#FF8200" d="M52.639,4.492c-0.891,0-1.65-0.924-1.65-1.848c0-0.891,0.727-1.815,1.65-1.815
		c0.891,0,1.684,0.858,1.684,1.782C54.322,3.535,53.529,4.492,52.639,4.492z M51.385,7.1h2.541V22.05h-2.541V7.1z"/>
	<path fill="#FF8200" d="M68.941,21.06c-1.484,1.023-3.268,1.387-4.95,1.387c-3.862,0-6.634-2.772-6.634-7.987
		c0-5.446,3.696-7.756,6.699-7.756c2.74,0,4.654,0.693,4.885,2.673c0.033,0.297,0.033,0.726,0.033,1.089h-2.377
		c0-1.288-0.692-1.584-2.408-1.584c-1.023,0-1.486,0.132-1.717,0.264c-0.264,0.165-2.344,1.188-2.344,5.215
		c0,4.191,2.41,5.908,4.555,5.908c1.222,0,3.07-0.693,4.061-1.519L68.941,21.06z"/>
	<path fill="#FF8200" d="M81.877,22.05c-0.164-0.494-0.297-0.99-0.362-1.419l-0.099-0.627c-1.222,1.849-2.707,2.476-4.588,2.476
		c-3.598,0-6.403-2.707-6.403-7.559c0-5.181,2.509-8.218,7.162-8.218c1.353,0,2.872,0.429,3.763,1.584L81.91,7.1h1.98l-0.23,2.112
		v8.383c0,1.122,0.33,3.399,0.693,4.455H81.877z M81.119,13.701c0-3.333-1.222-4.819-3.467-4.819c-1.188,0-2.441,0.33-2.673,0.561
		c-0.396,0.396-1.815,1.815-1.815,5.115c0,4.291,1.98,5.744,4.093,5.744c1.617,0,2.904-1.156,3.862-3.467V13.701z"/>
	<path fill="#FF8200" d="M88.277,0.499h2.541V22.05h-2.541V0.499z"/>
	<path fill="#FF8200" d="M98.607,22.05h-2.574V2.116h2.574v9.242c0.527-0.495,1.881-1.716,3.201-3.433l4.521-5.809h3.004
		l-4.423,5.743c-0.892,1.155-1.683,1.98-2.244,2.607c-0.33,0.363-0.628,0.66-0.925,0.891l1.09,1.122
		c0.693,0.726,1.584,1.815,2.508,3.102l4.621,6.469h-3.201l-4.786-6.699c-1.254-1.783-2.739-2.938-3.366-3.433V22.05z"/>
	<path fill="#FF8200" d="M113.886,14.261v0.496c0,3.564,1.749,5.512,4.885,5.512c1.749,0,3.796-0.76,4.687-1.552l0.197,2.311
		c-1.319,0.792-2.871,1.419-5.676,1.419c-3.763,0-6.733-2.904-6.733-7.822c0-5.148,2.806-7.921,6.667-7.921
		c4.588,0,6.007,2.376,6.007,7.558H113.886z M121.609,12.281c-0.1-2.904-1.387-3.432-3.862-3.432c-0.692,0-1.815,0.297-1.979,0.462
		c-0.199,0.198-1.354,1.089-1.618,2.97H121.609z"/>
	<path fill="#FF8200" d="M132.465,18.585L136.359,7.1h2.509l-5.545,15.644c-1.122,3.168-2.212,5.908-2.212,5.908h-2.705
		c0,0,1.154-2.476,2.013-4.555l0.792-1.881L125.402,7.1h2.706L132.465,18.585z"/>
</g>
<g>
	<path fill="#FF8200" d="M143.471,6.687c-1.247,0-2.295-1.001-2.295-2.264c0-1.264,1.048-2.264,2.295-2.264s2.271,1.008,2.271,2.264
		C145.741,5.678,144.718,6.687,143.471,6.687z M143.463,2.616c-1,0-1.823,0.792-1.823,1.799c0,1.008,0.815,1.815,1.823,1.815
		c0.999,0,1.814-0.816,1.814-1.815C145.277,3.408,144.462,2.616,143.463,2.616z M144.03,5.63c-0.104-0.104-0.191-0.232-0.28-0.344
		l-0.503-0.664h-0.208V5.63h-0.408V3.183c0.24-0.016,0.488-0.039,0.728-0.039c0.472,0,0.928,0.184,0.928,0.727
		c0,0.336-0.224,0.616-0.544,0.704c0.264,0.368,0.536,0.728,0.848,1.056H144.03z M143.303,3.511h-0.264v0.76h0.264
		c0.296,0,0.527-0.072,0.527-0.408C143.83,3.568,143.543,3.511,143.303,3.511z"/>
</g>
</svg>
